<svg xmlns="http://www.w3.org/2000/svg" viewBox="0 0 41.57 34.08"><defs><style>.cls-1{fill:#42afc1;}.cls-2{fill:#127182;}.cls-3{fill:#137283;}.cls-4{fill:#137282;}.cls-5{fill:#45b0c2;}.cls-6{fill:#43afc2;}.cls-7{fill:#207a8a;}</style></defs><g id="Layer_2" data-name="Layer 2"><g id="Layer_1-2" data-name="Layer 1"><path class="cls-1" d="M11.78,8.83a5.66,5.66,0,0,1,1.86-4.34c6.7-6,7.76-6,14.26.1a5.2,5.2,0,0,1,1.86,5c-.51,2-2.67,2.86-4.2,4-1,.72-1.5-.94-2-1.69-1.69-2.56-3.31-3.16-5.39-.33-.58.8-1,3-2.49,1.77S11.63,11.54,11.78,8.83Z"/><path class="cls-2" d="M25.4,20.62c0,3.14-2.57,7.3-4.61,7.45s-4.9-4.29-4.81-7.58c.08-3.1,3.2-8.78,4.8-8.73S25.39,17.57,25.4,20.62Z"/><path class="cls-3" d="M26.21,26.41a20.87,20.87,0,0,0,.33-9.08c-.48-2.43,1.77-3.7,3.62-4.62a5.2,5.2,0,0,1,5.92.9c.4.33.84.86.48,1.24-3,3.19-3.07,8.26-7.07,10.74C28.57,26.16,27.68,27,26.21,26.41Z"/><path class="cls-4" d="M9,22.74c-1-2.37-1.61-5-3.47-6.92C4.27,14.48,5,13.73,6.26,13a5.36,5.36,0,0,1,6,.17c2,1.32,3.49,2.92,2.57,5.55s.08,5.09.5,7.54c-1.35.9-2.2-.36-3.25-.44A3.63,3.63,0,0,1,9,22.74Z"/><path class="cls-5" d="M25.69,29.15a14.26,14.26,0,0,0,8.73-6.57c1.5-2.42,3.53-2.35,5.78-1.17,1.63.86,2,1.7.17,2.84a9.92,9.92,0,0,0-2.83,3.39C34.58,32.46,30.48,33,25.69,29.15Z"/><path class="cls-6" d="M11.17,26.65C12.23,28,14,28,15.38,28.92c-3.69,3.62-8.29,3.27-11-.71-.76-1.14-1.66-2.19-2.3-3.39-.55-1-3.55-1.26-1.29-3.2a4,4,0,0,1,5.45-.24,13.94,13.94,0,0,1,1.87,2.29"/><path class="cls-7" d="M22.78,31.06c-.41,1.25-.69,3-2.19,3-1.11,0-1.73-1.61-1.92-2.86s.78-1.86,1.75-2A2,2,0,0,1,22.78,31.06Z"/></g></g></svg>