<?xml version="1.0" standalone="no"?>
<!DOCTYPE svg PUBLIC "-//W3C//DTD SVG 20010904//EN"
 "http://www.w3.org/TR/2001/REC-SVG-20010904/DTD/svg10.dtd">
<svg version="1.0" xmlns="http://www.w3.org/2000/svg"
 width="672.000000pt" height="672.000000pt" viewBox="0 0 672.000000 672.000000"
 preserveAspectRatio="xMidYMid meet">
<metadata>
Created by potrace 1.14, written by Peter Selinger 2001-2017
</metadata>
<g transform="translate(0.000000,672.000000) scale(0.100000,-0.100000)"
fill="#000000" stroke="none">
<path d="M3215 6096 c-228 -65 -451 -215 -881 -592 -219 -193 -272 -255 -344
-406 -57 -120 -81 -220 -87 -373 -6 -150 4 -216 49 -305 57 -115 161 -206 398
-348 47 -28 123 -78 169 -111 124 -90 174 -93 251 -13 28 29 66 88 99 155 64
130 116 200 217 296 192 183 364 182 549 -3 85 -86 145 -168 227 -312 66 -119
97 -160 137 -186 53 -36 74 -27 312 131 307 204 397 287 464 426 98 204 59
508 -95 735 -48 71 -100 124 -290 297 -400 363 -594 505 -793 581 -83 32 -103
36 -212 39 -82 2 -136 -2 -170 -11z"/>
<path d="M3285 4196 c-193 -84 -520 -623 -650 -1072 -84 -288 -70 -549 45
-840 41 -105 129 -270 193 -363 74 -109 237 -268 317 -311 60 -32 72 -35 150
-35 77 0 92 3 155 34 92 45 246 198 334 331 119 180 224 431 262 625 20 103
18 330 -5 435 -101 473 -443 1091 -660 1194 -41 19 -100 20 -141 2z"/>
<path d="M1370 4144 c-80 -14 -169 -39 -228 -63 -98 -41 -241 -133 -294 -189
-102 -109 -85 -202 68 -372 90 -101 182 -242 254 -391 65 -135 248 -606 286
-734 31 -108 49 -149 94 -214 91 -134 231 -221 401 -251 36 -6 112 -34 174
-63 105 -50 114 -52 195 -52 88 0 144 18 157 51 3 8 -14 101 -37 207 -79 361
-93 456 -93 632 -1 169 9 227 68 423 98 328 -25 580 -415 847 -167 115 -310
164 -495 170 -60 2 -121 2 -135 -1z"/>
<path d="M5096 4134 c-98 -18 -200 -58 -341 -136 -157 -86 -244 -149 -326
-235 -118 -125 -171 -271 -150 -415 5 -35 16 -108 25 -163 38 -254 46 -545 21
-807 -15 -154 -51 -373 -80 -478 -18 -68 -13 -73 85 -91 126 -22 205 5 420
146 103 67 161 114 246 199 179 179 272 336 479 801 165 372 266 550 399 705
31 36 59 75 62 87 22 81 -185 269 -377 343 -147 57 -308 72 -463 44z"/>
<path d="M439 2795 c-118 -29 -219 -86 -323 -184 -97 -92 -116 -124 -116 -196
0 -61 1 -64 43 -101 23 -22 88 -67 144 -102 111 -68 119 -76 199 -206 118
-193 397 -569 489 -661 336 -337 774 -411 1203 -205 123 59 251 145 346 233
l70 63 -56 32 c-30 17 -137 63 -238 102 -100 38 -209 86 -241 106 -85 51 -655
621 -734 734 -33 46 -107 132 -165 191 -116 116 -194 164 -320 193 -79 19
-225 19 -301 1z"/>
<path d="M5933 2766 c-150 -38 -254 -128 -390 -335 -157 -240 -284 -389 -458
-538 -247 -213 -579 -395 -855 -469 -36 -10 -69 -20 -73 -24 -11 -10 150 -129
277 -205 386 -232 742 -274 1054 -125 251 120 432 309 648 678 97 165 274 354
444 474 102 73 140 124 140 191 0 34 -7 63 -20 84 -46 76 -242 191 -420 248
-103 33 -264 43 -347 21z"/>
<path d="M3250 1385 c-156 -44 -240 -140 -240 -276 0 -67 44 -233 84 -314 81
-164 184 -223 318 -183 99 29 183 158 247 381 28 95 31 112 20 149 -52 194
-235 297 -429 243z"/>
</g>
</svg>
